<svg xmlns="http://www.w3.org/2000/svg" viewBox="0 0 1400 480" width="1400" height="480" fill="#3d1e0e">
<g transform="translate(40.0 440.0) rotate(2.4)">
    <ellipse cx="14" cy="-9" rx="11" ry="4.2"/><ellipse cx="14" cy="9" rx="11" ry="4.2"/>
    <circle cx="-12" cy="-3" r="3.6"/><circle cx="-26" cy="4" r="3.6"/>
  </g>
<g transform="translate(142.5 442.2) rotate(-0.3)">
    <ellipse cx="14" cy="-9" rx="11" ry="4.2"/><ellipse cx="14" cy="9" rx="11" ry="4.2"/>
    <circle cx="-12" cy="-3" r="3.6"/><circle cx="-26" cy="4" r="3.6"/>
  </g>
<g transform="translate(243.1 439.5) rotate(-3.2)">
    <ellipse cx="14" cy="-9" rx="11" ry="4.2"/><ellipse cx="14" cy="9" rx="11" ry="4.2"/>
    <circle cx="-12" cy="-3" r="3.6"/><circle cx="-26" cy="4" r="3.6"/>
  </g>
<g transform="translate(341.9 431.7) rotate(-6.1)">
    <ellipse cx="14" cy="-9" rx="11" ry="4.2"/><ellipse cx="14" cy="9" rx="11" ry="4.2"/>
    <circle cx="-12" cy="-3" r="3.6"/><circle cx="-26" cy="4" r="3.6"/>
  </g>
<g transform="translate(438.9 419.0) rotate(-9.2)">
    <ellipse cx="14" cy="-9" rx="11" ry="4.2"/><ellipse cx="14" cy="9" rx="11" ry="4.2"/>
    <circle cx="-12" cy="-3" r="3.6"/><circle cx="-26" cy="4" r="3.6"/>
  </g>
<g transform="translate(534.0 401.4) rotate(-12.3)">
    <ellipse cx="14" cy="-9" rx="11" ry="4.2"/><ellipse cx="14" cy="9" rx="11" ry="4.2"/>
    <circle cx="-12" cy="-3" r="3.6"/><circle cx="-26" cy="4" r="3.6"/>
  </g>
<g transform="translate(627.3 378.7) rotate(-15.4)">
    <ellipse cx="14" cy="-9" rx="11" ry="4.2"/><ellipse cx="14" cy="9" rx="11" ry="4.2"/>
    <circle cx="-12" cy="-3" r="3.6"/><circle cx="-26" cy="4" r="3.6"/>
  </g>
<g transform="translate(718.7 351.1) rotate(-18.6)">
    <ellipse cx="14" cy="-9" rx="11" ry="4.2"/><ellipse cx="14" cy="9" rx="11" ry="4.2"/>
    <circle cx="-12" cy="-3" r="3.6"/><circle cx="-26" cy="4" r="3.6"/>
  </g>
<g transform="translate(808.3 318.6) rotate(-21.8)">
    <ellipse cx="14" cy="-9" rx="11" ry="4.2"/><ellipse cx="14" cy="9" rx="11" ry="4.2"/>
    <circle cx="-12" cy="-3" r="3.6"/><circle cx="-26" cy="4" r="3.6"/>
  </g>
<g transform="translate(896.0 281.0) rotate(-25.0)">
    <ellipse cx="14" cy="-9" rx="11" ry="4.2"/><ellipse cx="14" cy="9" rx="11" ry="4.2"/>
    <circle cx="-12" cy="-3" r="3.6"/><circle cx="-26" cy="4" r="3.6"/>
  </g>
<g transform="translate(982.0 238.5) rotate(-28.1)">
    <ellipse cx="14" cy="-9" rx="11" ry="4.2"/><ellipse cx="14" cy="9" rx="11" ry="4.2"/>
    <circle cx="-12" cy="-3" r="3.6"/><circle cx="-26" cy="4" r="3.6"/>
  </g>
<g transform="translate(1066.0 191.0) rotate(-31.2)">
    <ellipse cx="14" cy="-9" rx="11" ry="4.2"/><ellipse cx="14" cy="9" rx="11" ry="4.2"/>
    <circle cx="-12" cy="-3" r="3.6"/><circle cx="-26" cy="4" r="3.6"/>
  </g>
<g transform="translate(1148.3 138.5) rotate(-34.2)">
    <ellipse cx="14" cy="-9" rx="11" ry="4.2"/><ellipse cx="14" cy="9" rx="11" ry="4.2"/>
    <circle cx="-12" cy="-3" r="3.6"/><circle cx="-26" cy="4" r="3.6"/>
  </g>
<g transform="translate(1232.0 89.0) scale(0.8)">
  <ellipse cx="0" cy="0" rx="46" ry="34"/>                       <!-- cuerpo -->
  <circle cx="-44" cy="-30" r="20"/>                             <!-- cabeza -->
  <ellipse cx="-50" cy="-64" rx="7" ry="24" transform="rotate(-12 -50 -64)"/>   <!-- oreja -->
  <ellipse cx="-34" cy="-62" rx="7" ry="24" transform="rotate(14 -34 -62)"/>    <!-- oreja -->
  <circle cx="44" cy="-6" r="11"/>                               <!-- rabo -->
  <ellipse cx="-14" cy="30" rx="26" ry="8"/>                     <!-- pata trasera -->
  <ellipse cx="-52" cy="-6" rx="9" ry="5"/>                      <!-- pata delantera -->
</g>
</svg>